<svg width="185" height="49" xmlns="http://www.w3.org/2000/svg" xmlns:xlink="http://www.w3.org/1999/xlink"><defs><path id="a" d="M0 59.506h200.017V0H0z"/></defs><g transform="translate(-8 -5)" fill="none" fill-rule="evenodd"><path d="M19.674 33.41C16.28 22.45 20.809 10.926 30.008 4.995a23.997 23.997 0 00-4.246.898c-12.77 3.946-19.926 17.5-15.98 30.27 3.943 12.771 17.5 19.929 30.268 15.985a24.308 24.308 0 002.905-1.113c-10.443-.262-20.021-7.088-23.281-17.623" fill="#273473"/><path d="M43.557 23.018a39.249 39.249 0 003.232-6.39 35.06 35.06 0 00.88-2.414c-2.243-2.411-4.707-4.352-7.265-5.686a40.626 40.626 0 01-1.987 4.587 44.137 44.137 0 01-1.91 3.476 41.347 41.347 0 017.05 6.427M34.26 45.79c.553.787 1.069 1.55 1.542 2.28a27.021 27.021 0 007.546 1.756c.5-.289 1-.594 1.492-.928.113-.075.223-.157.334-.234a51.547 51.547 0 00-3.7-7.337c-.39.279-.785.548-1.189.8-1.982 1.48-3.993 2.699-6.025 3.664m7.43-5.616c2.682-2.07 5.04-4.789 7.003-7.928-.124-.22-.243-.438-.372-.66-1.208-2.532-2.809-4.978-4.675-7.245a45.492 45.492 0 01-7.034 8.313c1.824 2.199 3.41 4.501 4.629 6.806.156.24.3.476.449.714m10.903.863a50.307 50.307 0 00-3.464-8.011c-1.98 3.095-4.345 5.773-7.018 7.821a52.318 52.318 0 013.73 7.353c2.606-1.91 4.895-4.358 6.752-7.163M39.434 7.181c.176.077.351.165.527.248.072-.213.135-.423.203-.634A23.574 23.574 0 0034.723 5.6c1.63.355 3.216.878 4.711 1.58M28.472 8.931a58.916 58.916 0 01-1.753 2.744c.318.092.637.19.958.297 2.784.924 5.559 2.358 8.182 4.16a42.828 42.828 0 001.85-3.37 40.683 40.683 0 001.986-4.584c-.195-.092-.39-.19-.587-.276-2.704-1.27-5.777-1.94-8.872-2.024a54.133 54.133 0 01-1.764 3.053m19.47 4.418c.16-.536.307-1.073.442-1.61-.067-.062-.131-.128-.2-.19a23.514 23.514 0 00-7.292-4.482c-.074.235-.144.469-.225.704 2.556 1.316 5.02 3.217 7.275 5.578M29.538 25.636a53.205 53.205 0 016.563 6.414 44.6 44.6 0 007.012-8.341 40.44 40.44 0 00-7.023-6.447 53.56 53.56 0 01-6.552 8.374m24.85-3.119c.467.893.882 1.783 1.27 2.665a23.597 23.597 0 00-1.231-4.535c-.112.432-.223.866-.346 1.295.102.192.208.38.307.575m-.843-1.557c.137-.506.26-1.017.379-1.53a23.47 23.47 0 00-4.87-7.057c-.147.55-.307 1.101-.48 1.65 1.835 2.028 3.515 4.366 4.971 6.938m-5.264-6.075a37.754 37.754 0 01-.758 2.036c-.897 2.288-2.057 4.548-3.427 6.72 1.974 2.364 3.66 4.926 4.923 7.576.051.087.097.174.148.261 1.702-2.877 3.078-6.076 4.074-9.43-1.438-2.657-3.115-5.071-4.96-7.163m-23.375-3.663c.332.07.667.148 1.003.233a58.35 58.35 0 001.888-2.937 54.6 54.6 0 00.954-1.598 26.885 26.885 0 00-3.845 4.302M55.96 28.036a45.005 45.005 0 00-2.207-5.02c-1.04 3.291-2.437 6.423-4.147 9.242a50.985 50.985 0 013.534 7.92c.215-.347.408-.711.608-1.07a23.566 23.566 0 002.213-11.072m-34.429 3.433a47.461 47.461 0 006.838-5.761c-2.517-1.998-5.14-3.694-7.702-4.934a23.63 23.63 0 00.01 9.966c.284.238.568.48.854.729M31.67 46.035c.464-.175.928-.366 1.39-.568a82.488 82.488 0 00-5.204-6.547c-.86.467-1.753.913-2.68 1.323a24.633 24.633 0 006.494 5.792m-4.353-7.722a73.866 73.866 0 00-5.84-5.843l-.29.186a23.51 23.51 0 003.487 6.943c.911-.397 1.793-.83 2.643-1.286m-6.469-18.328c2.684 1.285 5.44 3.057 8.074 5.153a52.65 52.65 0 006.523-8.336c-2.57-1.767-5.29-3.175-8.017-4.08a24.969 24.969 0 00-1.184-.358 72.255 72.255 0 01-5.075 6.446c-.116.39-.224.781-.321 1.175m1.026-3.208a70.538 70.538 0 003.557-4.627 22.62 22.62 0 00-1.017-.221 25.83 25.83 0 00-2.54 4.848m11.923 28.358c2.034-.955 4.05-2.174 6.042-3.66.413-.259.818-.536 1.218-.824-.165-.263-.324-.524-.498-.79-1.196-2.262-2.752-4.518-4.536-6.674a42.51 42.51 0 01-2.679 2.214 46.496 46.496 0 01-4.779 3.13 83.367 83.367 0 015.182 6.536l.05.068M22.145 32.006a75.324 75.324 0 015.887 5.919 45.684 45.684 0 004.838-3.156 41.728 41.728 0 002.642-2.186 52.114 52.114 0 00-6.523-6.376 48.379 48.379 0 01-6.844 5.8m12.341 15.505c-.303-.45-.625-.914-.956-1.385-.322.143-.644.28-.966.41.624.35 1.264.676 1.922.975" fill="#007F40"/><path d="M43.557 23.018a39.249 39.249 0 003.232-6.39 35.06 35.06 0 00.88-2.414c-2.243-2.411-4.707-4.352-7.265-5.686a40.626 40.626 0 01-1.987 4.587 44.137 44.137 0 01-1.91 3.476 41.347 41.347 0 017.05 6.427M34.26 45.79c.553.787 1.069 1.55 1.542 2.28a27.021 27.021 0 007.546 1.756c.5-.289 1-.594 1.492-.928.113-.075.223-.157.334-.234a51.547 51.547 0 00-3.7-7.337c-.39.279-.785.548-1.189.8-1.982 1.48-3.993 2.699-6.025 3.664m7.43-5.616c2.682-2.07 5.04-4.789 7.003-7.928-.124-.22-.243-.438-.372-.66-1.208-2.532-2.809-4.978-4.675-7.245a45.492 45.492 0 01-7.034 8.313c1.824 2.199 3.41 4.501 4.629 6.806.156.24.3.476.449.714m10.903.863a50.307 50.307 0 00-3.464-8.011c-1.98 3.095-4.345 5.773-7.018 7.821a52.318 52.318 0 013.73 7.353c2.606-1.91 4.895-4.358 6.752-7.163M39.434 7.181c.176.077.351.165.527.248.072-.213.135-.423.203-.634A23.574 23.574 0 0034.723 5.6c1.63.355 3.216.878 4.711 1.58M28.472 8.931a58.916 58.916 0 01-1.753 2.744c.318.092.637.19.958.297 2.784.924 5.559 2.358 8.182 4.16a42.828 42.828 0 001.85-3.37 40.683 40.683 0 001.986-4.584c-.195-.092-.39-.19-.587-.276-2.704-1.27-5.777-1.94-8.872-2.024a54.133 54.133 0 01-1.764 3.053m19.47 4.418c.16-.536.307-1.073.442-1.61-.067-.062-.131-.128-.2-.19a23.514 23.514 0 00-7.292-4.482c-.074.235-.144.469-.225.704 2.556 1.316 5.02 3.217 7.275 5.578M29.538 25.636a53.205 53.205 0 016.563 6.414 44.6 44.6 0 007.012-8.341 40.44 40.44 0 00-7.023-6.447 53.56 53.56 0 01-6.552 8.374m24.85-3.119c.467.893.882 1.783 1.27 2.665a23.597 23.597 0 00-1.231-4.535c-.112.432-.223.866-.346 1.295.102.192.208.38.307.575m-.843-1.557c.137-.506.26-1.017.379-1.53a23.47 23.47 0 00-4.87-7.057c-.147.55-.307 1.101-.48 1.65 1.835 2.028 3.515 4.366 4.971 6.938m-5.264-6.075a37.754 37.754 0 01-.758 2.036c-.897 2.288-2.057 4.548-3.427 6.72 1.974 2.364 3.66 4.926 4.923 7.576.051.087.097.174.148.261 1.702-2.877 3.078-6.076 4.074-9.43-1.438-2.657-3.115-5.071-4.96-7.163m-23.375-3.663c.332.07.667.148 1.003.233a58.35 58.35 0 001.888-2.937 54.6 54.6 0 00.954-1.598 26.885 26.885 0 00-3.845 4.302M55.96 28.036a45.005 45.005 0 00-2.207-5.02c-1.04 3.291-2.437 6.423-4.147 9.242a50.985 50.985 0 013.534 7.92c.215-.347.408-.711.608-1.07a23.566 23.566 0 002.213-11.072m-34.429 3.433a47.461 47.461 0 006.838-5.761c-2.517-1.998-5.14-3.694-7.702-4.934a23.63 23.63 0 00.01 9.966c.284.238.568.48.854.729M31.67 46.035c.464-.175.928-.366 1.39-.568a82.488 82.488 0 00-5.204-6.547c-.86.467-1.753.913-2.68 1.323a24.633 24.633 0 006.494 5.792m-4.353-7.722a73.866 73.866 0 00-5.84-5.843l-.29.186a23.51 23.51 0 003.487 6.943c.911-.397 1.793-.83 2.643-1.286m-6.469-18.328c2.684 1.285 5.44 3.057 8.074 5.153a52.65 52.65 0 006.523-8.336c-2.57-1.767-5.29-3.175-8.017-4.08a24.969 24.969 0 00-1.184-.358 72.255 72.255 0 01-5.075 6.446c-.116.39-.224.781-.321 1.175m1.026-3.208a70.538 70.538 0 003.557-4.627 22.62 22.62 0 00-1.017-.221 25.83 25.83 0 00-2.54 4.848m11.923 28.358c2.034-.955 4.05-2.174 6.042-3.66.413-.259.818-.536 1.218-.824-.165-.263-.324-.524-.498-.79-1.196-2.262-2.752-4.518-4.536-6.674a42.51 42.51 0 01-2.679 2.214 46.496 46.496 0 01-4.779 3.13 83.367 83.367 0 015.182 6.536l.05.068M22.145 32.006a75.324 75.324 0 015.887 5.919 45.684 45.684 0 004.838-3.156 41.728 41.728 0 002.642-2.186 52.114 52.114 0 00-6.523-6.376 48.379 48.379 0 01-6.844 5.8m12.341 15.505c-.303-.45-.625-.914-.956-1.385-.322.143-.644.28-.966.41.624.35 1.264.676 1.922.975" fill="#007F40"/><path d="M74.649 37.684c-7.446 0-12.976-5.746-12.976-13.012V24.6c0-7.192 5.422-13.083 13.193-13.083 4.77 0 7.626 1.59 9.975 3.903l-3.543 4.084c-1.951-1.77-3.938-2.855-6.469-2.855-4.265 0-7.336 3.543-7.336 7.88v.071c0 4.338 2.999 7.952 7.336 7.952 2.891 0 4.663-1.156 6.65-2.964l3.542 3.579c-2.602 2.783-5.493 4.518-10.372 4.518m28.838-17.097c0-2.386-1.662-3.614-4.373-3.614h-5.53v7.264h5.639c2.71 0 4.264-1.446 4.264-3.577v-.073zm-.109 16.662l-5.42-8.096h-4.374v8.096h-5.566v-25.3h11.565c5.965 0 9.542 3.145 9.542 8.349v.073c0 4.084-2.204 6.65-5.42 7.842l6.18 9.036h-6.507zm21.936-18.795l-3.36 8.206h6.721l-3.361-8.206zm7.661 18.795l-2.313-5.675h-10.698l-2.312 5.675h-5.675l10.842-25.481h5.133l10.845 25.48h-5.822zm26.021 0l-12.253-16.084V37.25h-5.493v-25.3h5.132l11.855 15.577V11.95h5.493v25.3zm7.912 0v-25.3h19.083v4.95H172.44v5.132h11.926v4.952H172.44v5.313h13.732v4.952zm22.835-23.103h.247c.289 0 .523-.097.523-.33 0-.205-.151-.344-.482-.344a1.17 1.17 0 00-.288.028v.646zm-.013 1.266h-.523v-2.257c.205-.027.495-.07.866-.07.426 0 .619.07.77.181.138.095.233.26.233.481 0 .275-.206.453-.468.536v.028c.222.069.332.247.401.55.067.345.123.468.164.55h-.55c-.07-.082-.11-.274-.179-.55-.04-.234-.179-.344-.468-.344h-.246v.895zm-1.39-1.17c0 1.005.757 1.801 1.761 1.801.975.015 1.719-.796 1.719-1.785 0-1.007-.744-1.818-1.747-1.818-.976 0-1.733.811-1.733 1.803zm4.057 0c0 1.266-1.017 2.269-2.31 2.269-1.294 0-2.325-1.003-2.325-2.268 0-1.266 1.031-2.257 2.34-2.257 1.278 0 2.295.99 2.295 2.257z" fill="#273473"/><path fill="#007F40" d="M63.72 40.815l.957 3.976 1-3.976h1.408l1 3.976.957-3.976h1.408l-1.656 6.207h-1.346l-1.062-4.1-1.072 4.1h-1.346l-1.655-6.207zm9.723 3.099c0 .555.168 1.022.504 1.4.337.377.791.566 1.364.566.56 0 1.008-.189 1.342-.567.333-.377.5-.844.5-1.399 0-.543-.173-1.005-.518-1.385-.345-.381-.787-.572-1.324-.572-.567 0-1.02.19-1.359.567-.34.378-.51.841-.51 1.39m-1.354 0c0-.92.307-1.684.92-2.289.615-.605 1.37-.907 2.268-.907.903 0 1.664.302 2.284.907.62.605.93 1.368.93 2.29 0 .926-.31 1.692-.93 2.297-.62.605-1.381.908-2.284.908-.898 0-1.653-.303-2.267-.908-.614-.605-.921-1.371-.921-2.298m10.829-1.886H81.9v1.798h1.018c.862 0 1.293-.304 1.293-.912 0-.301-.105-.524-.314-.669-.21-.144-.536-.217-.979-.217zm1.258 4.994l-1.222-1.992h-1.054v1.992h-1.32v-6.207h2.568c.691 0 1.26.18 1.705.54.446.36.669.856.669 1.488 0 .437-.111.825-.332 1.164a2.14 2.14 0 01-.89.775l1.372 2.24h-1.496zm3.532 0v-6.207h1.32v4.994h2.833v1.213zm7.978-4.994h-.522v3.781h.531c1.547 0 2.32-.643 2.32-1.93 0-1.234-.776-1.85-2.329-1.85zm-1.841 4.994v-6.207h2.045c.443 0 .86.056 1.253.168a3.81 3.81 0 011.098.514c.34.23.61.55.81.96.201.411.301.885.301 1.422 0 .543-.1 1.022-.3 1.439-.202.416-.47.743-.806.983a3.798 3.798 0 01-1.103.54 4.284 4.284 0 01-1.253.181h-2.045zm8.553-6.207l.957 3.976 1-3.976h1.408l1 3.976.957-3.976h1.408l-1.656 6.207h-1.346l-1.062-4.1-1.072 4.1h-1.346l-1.655-6.207z"/><mask id="b" fill="#fff"><use xlink:href="#a"/></mask><path fill="#007F40" mask="url(#b)" d="M111.066 47.022h1.31v-6.207h-1.31zm5.543-4.994h-.522v3.781h.53c1.547 0 2.32-.643 2.32-1.93 0-1.234-.775-1.85-2.328-1.85zm-1.842 4.994v-6.207h2.046c.442 0 .86.056 1.253.168.392.113.758.284 1.097.514.34.23.61.55.81.96.201.411.302.885.302 1.422 0 .543-.1 1.022-.301 1.439-.2.416-.47.743-.806.983a3.793 3.793 0 01-1.102.54 4.284 4.284 0 01-1.253.181h-2.046zm7.598 0v-6.207h4.577v1.213h-3.258v1.231h3.108v1.195h-3.108v1.355h3.258v1.213zm10.475 0v-6.207h1.32v4.994h2.833v1.213zm7.243-3.108c0 .555.168 1.022.504 1.4.337.377.791.566 1.364.566.56 0 1.008-.189 1.341-.567.334-.377.5-.844.5-1.399 0-.543-.172-1.005-.517-1.385-.346-.381-.787-.572-1.324-.572-.567 0-1.02.19-1.36.567-.339.378-.508.841-.508 1.39m-1.355 0c0-.92.307-1.684.92-2.289.615-.605 1.37-.907 2.268-.907.903 0 1.664.302 2.284.907.62.605.93 1.368.93 2.29 0 .926-.31 1.692-.93 2.297-.62.605-1.381.908-2.284.908-.898 0-1.653-.303-2.267-.908-.614-.605-.921-1.371-.921-2.298m11.538.868V43.57h2.523v2.488a3.5 3.5 0 01-1.12.766 3.55 3.55 0 01-1.456.297c-.916 0-1.684-.298-2.307-.895-.623-.596-.934-1.36-.934-2.293 0-.968.31-1.746.93-2.333.62-.588 1.393-.882 2.32-.882 1.015 0 1.838.39 2.47 1.17l-.886.903a1.995 1.995 0 00-1.647-.841 1.8 1.8 0 00-1.28.527c-.368.35-.553.827-.553 1.43 0 .596.183 1.075.55 1.438.365.364.817.545 1.354.545.502 0 .924-.124 1.266-.372v-.735h-1.23zm4.817 2.24h1.31v-6.207h-1.31zm6.268-2.435l-.761-.133c-.608-.1-1.086-.307-1.435-.62-.348-.312-.522-.726-.522-1.239 0-.572.226-1.029.677-1.368.452-.34.99-.51 1.616-.51.969 0 1.766.331 2.391.993l-.885.93c-.467-.48-.992-.718-1.576-.718-.278 0-.5.056-.665.168a.512.512 0 00-.247.443c0 .33.295.549.885.655l.61.098c1.394.224 2.09.87 2.09 1.939a1.65 1.65 0 01-.677 1.372c-.451.349-1.049.523-1.793.523a3.316 3.316 0 01-1.487-.332 3.143 3.143 0 01-1.09-.855l.904-.912c.46.596 1.044.894 1.753.894.336 0 .6-.063.792-.19.192-.127.288-.288.288-.482 0-.331-.29-.55-.868-.656m3.914-3.772h4.87v1.213h-1.78v4.994h-1.31v-4.994h-1.78zm6.199 6.207h1.31v-6.207h-1.31zm8.04-2.001l.876.93c-.637.78-1.479 1.169-2.524 1.169-.95 0-1.737-.292-2.36-.877-.622-.584-.933-1.355-.933-2.311 0-.968.31-1.746.93-2.333.619-.588 1.392-.881 2.32-.881 1.014 0 1.838.39 2.47 1.168l-.886.904a1.992 1.992 0 00-1.647-.841c-.484 0-.91.175-1.28.526-.368.352-.553.828-.553 1.43 0 .615.183 1.099.55 1.453.365.354.817.53 1.354.53.697 0 1.258-.288 1.683-.867m5.126-.434l-.761-.133c-.609-.1-1.087-.307-1.435-.62-.348-.312-.522-.726-.522-1.239 0-.572.225-1.029.677-1.368.452-.34.99-.51 1.616-.51.968 0 1.765.331 2.39.993l-.884.93c-.467-.48-.992-.718-1.577-.718-.277 0-.499.056-.664.168a.512.512 0 00-.248.443c0 .33.295.549.886.655l.61.098c1.394.224 2.09.87 2.09 1.939a1.65 1.65 0 01-.677 1.372c-.452.349-1.05.523-1.793.523a3.32 3.32 0 01-1.488-.332 3.143 3.143 0 01-1.089-.855l.903-.912c.46.596 1.045.894 1.754.894.336 0 .6-.063.792-.19.192-.127.288-.288.288-.482 0-.331-.29-.55-.868-.656"/></g></svg>