<svg width="518" height="117" viewBox="0 0 518 117" fill="none" xmlns="http://www.w3.org/2000/svg">
<rect width="106.485" height="110" fill="black"/>
<rect x="8.7124" y="10" width="87.1241" height="90" fill="#FF6B35"/>
<path d="M124.333 16.416L124.861 16.512V72H116.653V8.64H128.221L161.101 64.08L160.573 64.176V8.64H168.781V72H157.117L124.333 16.416ZM197.604 49.2L176.34 8.64H186.228L201.732 39.648L217.188 8.64H227.076L205.86 49.2V72H197.604V49.2ZM260.904 65.04C264.84 65.04 268.248 64.496 271.128 63.408C274.04 62.32 276.104 61.264 277.32 60.24L280.92 67.296C279.48 68.576 276.968 69.872 273.384 71.184C269.832 72.496 265.56 73.152 260.568 73.152C255.896 73.152 251.56 72.32 247.56 70.656C243.56 68.992 240.056 66.672 237.048 63.696C234.072 60.72 231.736 57.248 230.04 53.28C228.376 49.312 227.544 45.024 227.544 40.416C227.544 35.808 228.376 31.504 230.04 27.504C231.704 23.504 234.024 20.016 237 17.04C240.008 14.032 243.512 11.696 247.512 10.032C251.544 8.336 255.896 7.488 260.568 7.488C265.56 7.488 269.832 8.144 273.384 9.456C276.968 10.768 279.48 12.064 280.92 13.344L277.32 20.4C276.104 19.344 274.04 18.288 271.128 17.232C268.248 16.144 264.84 15.6 260.904 15.6C257.32 15.6 254.04 16.208 251.064 17.424C248.088 18.64 245.496 20.368 243.288 22.608C241.112 24.816 239.416 27.424 238.2 30.432C237.016 33.44 236.424 36.72 236.424 40.272C236.424 43.856 237.016 47.168 238.2 50.208C239.416 53.216 241.112 55.84 243.288 58.08C245.496 60.288 248.088 62 251.064 63.216C254.04 64.432 257.32 65.04 260.904 65.04Z" fill="white"/>
<path d="M35.8177 31C35.8177 35.4183 32.3504 39 28.0733 39C23.7962 39 20.3289 35.4183 20.3289 31C20.3289 26.5817 23.7962 23 28.0733 23C32.3504 23 35.8177 26.5817 35.8177 31Z" fill="black"/>
<path d="M60.0188 31C60.0188 35.4183 56.5515 39 52.2744 39C47.9973 39 44.5301 35.4183 44.5301 31C44.5301 26.5817 47.9973 23 52.2744 23C56.5515 23 60.0188 26.5817 60.0188 31Z" fill="black"/>
<path d="M84.2199 31C84.2199 35.4183 80.7527 39 76.4756 39C72.1985 39 68.7312 35.4183 68.7312 31C68.7312 26.5817 72.1985 23 76.4756 23C80.7527 23 84.2199 26.5817 84.2199 31Z" fill="black"/>
<path d="M84.2199 57C84.2199 61.4183 80.7527 65 76.4756 65C72.1985 65 68.7312 61.4183 68.7312 57C68.7312 52.5817 72.1985 49 76.4756 49C80.7527 49 84.2199 52.5817 84.2199 57Z" fill="black"/>
<path d="M84.2199 83C84.2199 87.4183 80.7527 91 76.4756 91C72.1985 91 68.7312 87.4183 68.7312 83C68.7312 78.5817 72.1985 75 76.4756 75C80.7527 75 84.2199 78.5817 84.2199 83Z" fill="black"/>
<path d="M60.9868 57C60.9868 61.4183 57.5196 65 53.2425 65C48.9654 65 45.4981 61.4183 45.4981 57C45.4981 52.5817 48.9654 49 53.2425 49C57.5196 49 60.9868 52.5817 60.9868 57Z" fill="black"/>
<path d="M120.577 83.872C121.489 83.872 122.273 83.976 122.929 84.184C123.593 84.392 124.113 84.612 124.489 84.844C124.873 85.076 125.101 85.228 125.173 85.3L124.117 86.992C123.997 86.888 123.785 86.74 123.481 86.548C123.177 86.348 122.797 86.172 122.341 86.02C121.885 85.86 121.365 85.78 120.781 85.78C119.877 85.78 119.161 85.964 118.633 86.332C118.113 86.692 117.853 87.204 117.853 87.868C117.853 88.316 117.989 88.712 118.261 89.056C118.541 89.392 118.933 89.7 119.437 89.98C119.941 90.26 120.529 90.548 121.201 90.844C121.753 91.076 122.293 91.34 122.821 91.636C123.357 91.932 123.841 92.28 124.273 92.68C124.713 93.08 125.061 93.544 125.317 94.072C125.581 94.6 125.713 95.208 125.713 95.896C125.713 96.576 125.573 97.188 125.293 97.732C125.021 98.276 124.633 98.74 124.129 99.124C123.633 99.5 123.053 99.788 122.389 99.988C121.725 100.188 121.009 100.288 120.241 100.288C119.273 100.288 118.397 100.168 117.613 99.928C116.837 99.688 116.209 99.436 115.729 99.172C115.257 98.908 114.985 98.744 114.913 98.68L116.029 96.916C116.125 96.996 116.301 97.116 116.557 97.276C116.813 97.428 117.129 97.588 117.505 97.756C117.881 97.924 118.305 98.068 118.777 98.188C119.249 98.3 119.753 98.356 120.289 98.356C121.361 98.356 122.173 98.116 122.725 97.636C123.277 97.156 123.553 96.54 123.553 95.788C123.553 95.212 123.377 94.716 123.025 94.3C122.673 93.884 122.205 93.512 121.621 93.184C121.037 92.856 120.393 92.54 119.689 92.236C118.969 91.908 118.309 91.548 117.709 91.156C117.109 90.764 116.625 90.296 116.257 89.752C115.897 89.2 115.717 88.536 115.717 87.76C115.717 86.992 115.933 86.316 116.365 85.732C116.805 85.148 117.393 84.692 118.129 84.364C118.873 84.036 119.689 83.872 120.577 83.872ZM128.817 84.16H138.177V86.02H130.845V91.156H138.033V92.968H130.845V98.14H138.177V100H128.817V84.16ZM141.894 84.16H147.426C148.282 84.16 149.058 84.34 149.754 84.7C150.458 85.052 151.018 85.572 151.434 86.26C151.858 86.94 152.07 87.772 152.07 88.756C152.07 89.732 151.874 90.54 151.482 91.18C151.098 91.82 150.634 92.304 150.09 92.632C149.546 92.952 149.042 93.128 148.578 93.16L152.502 100H150.174L146.502 93.304H143.946V100H141.894V84.16ZM143.946 91.78H146.706C147.65 91.78 148.43 91.544 149.046 91.072C149.662 90.6 149.97 89.844 149.97 88.804C149.97 87.764 149.662 87.016 149.046 86.56C148.438 86.104 147.662 85.876 146.718 85.876H143.946V91.78ZM162.791 100H160.367L154.571 84.16H156.887L161.579 97.504L166.295 84.16H168.599L162.791 100ZM171.347 84.16H173.411V100H171.347V84.16ZM184.94 98.26C185.924 98.26 186.776 98.124 187.496 97.852C188.224 97.58 188.74 97.316 189.044 97.06L189.944 98.824C189.584 99.144 188.956 99.468 188.06 99.796C187.172 100.124 186.104 100.288 184.856 100.288C183.688 100.288 182.604 100.08 181.604 99.664C180.604 99.248 179.728 98.668 178.976 97.924C178.232 97.18 177.648 96.312 177.224 95.32C176.808 94.328 176.6 93.256 176.6 92.104C176.6 90.952 176.808 89.876 177.224 88.876C177.64 87.876 178.22 87.004 178.964 86.26C179.716 85.508 180.592 84.924 181.592 84.508C182.6 84.084 183.688 83.872 184.856 83.872C186.104 83.872 187.172 84.036 188.06 84.364C188.956 84.692 189.584 85.016 189.944 85.336L189.044 87.1C188.74 86.836 188.224 86.572 187.496 86.308C186.776 86.036 185.924 85.9 184.94 85.9C184.044 85.9 183.224 86.052 182.48 86.356C181.736 86.66 181.088 87.092 180.536 87.652C179.992 88.204 179.568 88.856 179.264 89.608C178.968 90.36 178.82 91.18 178.82 92.068C178.82 92.964 178.968 93.792 179.264 94.552C179.568 95.304 179.992 95.96 180.536 96.52C181.088 97.072 181.736 97.5 182.48 97.804C183.224 98.108 184.044 98.26 184.94 98.26ZM193.072 84.16H195.136V100H193.072V84.16ZM200.318 92.068C200.318 93.244 200.562 94.304 201.05 95.248C201.546 96.192 202.226 96.944 203.09 97.504C203.954 98.056 204.946 98.332 206.066 98.332C207.194 98.332 208.186 98.056 209.042 97.504C209.906 96.944 210.582 96.192 211.07 95.248C211.558 94.304 211.802 93.244 211.802 92.068C211.802 90.892 211.558 89.836 211.07 88.9C210.582 87.956 209.906 87.208 209.042 86.656C208.186 86.104 207.194 85.828 206.066 85.828C204.946 85.828 203.954 86.104 203.09 86.656C202.226 87.208 201.546 87.956 201.05 88.9C200.562 89.836 200.318 90.892 200.318 92.068ZM198.194 92.068C198.194 90.916 198.39 89.844 198.782 88.852C199.182 87.852 199.738 86.98 200.45 86.236C201.162 85.492 201.994 84.912 202.946 84.496C203.906 84.08 204.946 83.872 206.066 83.872C207.194 83.872 208.234 84.08 209.186 84.496C210.146 84.912 210.978 85.492 211.682 86.236C212.394 86.98 212.946 87.852 213.338 88.852C213.73 89.844 213.926 90.916 213.926 92.068C213.926 93.228 213.73 94.308 213.338 95.308C212.954 96.3 212.406 97.172 211.694 97.924C210.99 98.668 210.162 99.248 209.21 99.664C208.258 100.08 207.21 100.288 206.066 100.288C204.922 100.288 203.866 100.08 202.898 99.664C201.938 99.248 201.106 98.668 200.402 97.924C199.698 97.172 199.154 96.3 198.77 95.308C198.386 94.308 198.194 93.228 198.194 92.068ZM221.73 83.872C222.642 83.872 223.426 83.976 224.082 84.184C224.746 84.392 225.266 84.612 225.642 84.844C226.026 85.076 226.254 85.228 226.326 85.3L225.27 86.992C225.15 86.888 224.938 86.74 224.634 86.548C224.33 86.348 223.95 86.172 223.494 86.02C223.038 85.86 222.518 85.78 221.934 85.78C221.03 85.78 220.314 85.964 219.786 86.332C219.266 86.692 219.006 87.204 219.006 87.868C219.006 88.316 219.142 88.712 219.414 89.056C219.694 89.392 220.086 89.7 220.59 89.98C221.094 90.26 221.682 90.548 222.354 90.844C222.906 91.076 223.446 91.34 223.974 91.636C224.51 91.932 224.994 92.28 225.426 92.68C225.866 93.08 226.214 93.544 226.47 94.072C226.734 94.6 226.866 95.208 226.866 95.896C226.866 96.576 226.726 97.188 226.446 97.732C226.174 98.276 225.786 98.74 225.282 99.124C224.786 99.5 224.206 99.788 223.542 99.988C222.878 100.188 222.162 100.288 221.394 100.288C220.426 100.288 219.55 100.168 218.766 99.928C217.99 99.688 217.362 99.436 216.882 99.172C216.41 98.908 216.138 98.744 216.066 98.68L217.182 96.916C217.278 96.996 217.454 97.116 217.71 97.276C217.966 97.428 218.282 97.588 218.658 97.756C219.034 97.924 219.458 98.068 219.93 98.188C220.402 98.3 220.906 98.356 221.442 98.356C222.514 98.356 223.326 98.116 223.878 97.636C224.43 97.156 224.706 96.54 224.706 95.788C224.706 95.212 224.53 94.716 224.178 94.3C223.826 93.884 223.358 93.512 222.774 93.184C222.19 92.856 221.546 92.54 220.842 92.236C220.122 91.908 219.462 91.548 218.862 91.156C218.262 90.764 217.778 90.296 217.41 89.752C217.05 89.2 216.87 88.536 216.87 87.76C216.87 86.992 217.086 86.316 217.518 85.732C217.958 85.148 218.546 84.692 219.282 84.364C220.026 84.036 220.842 83.872 221.73 83.872ZM236.534 84.16H241.022C242.014 84.16 242.906 84.324 243.698 84.652C244.498 84.972 245.134 85.476 245.606 86.164C246.078 86.852 246.314 87.748 246.314 88.852C246.314 89.948 246.078 90.856 245.606 91.576C245.134 92.296 244.498 92.836 243.698 93.196C242.906 93.548 242.014 93.724 241.022 93.724H238.586V100H236.534V84.16ZM238.586 92.008H240.458C241.138 92.008 241.754 91.908 242.306 91.708C242.866 91.508 243.31 91.18 243.638 90.724C243.974 90.268 244.142 89.656 244.142 88.888C244.142 88.112 243.974 87.508 243.638 87.076C243.31 86.636 242.866 86.328 242.306 86.152C241.754 85.968 241.138 85.876 240.458 85.876H238.586V92.008ZM252.335 84.16H254.471L260.327 100H258.131L256.763 96.184H250.043L248.651 100H246.455L252.335 84.16ZM250.703 94.336H256.115L253.427 86.68H253.391L250.703 94.336ZM262.499 84.16H268.031C268.887 84.16 269.663 84.34 270.359 84.7C271.063 85.052 271.623 85.572 272.039 86.26C272.463 86.94 272.675 87.772 272.675 88.756C272.675 89.732 272.479 90.54 272.087 91.18C271.703 91.82 271.239 92.304 270.695 92.632C270.151 92.952 269.647 93.128 269.183 93.16L273.107 100H270.779L267.107 93.304H264.551V100H262.499V84.16ZM264.551 91.78H267.311C268.255 91.78 269.035 91.544 269.651 91.072C270.267 90.6 270.575 89.844 270.575 88.804C270.575 87.764 270.267 87.016 269.651 86.56C269.043 86.104 268.267 85.876 267.323 85.876H264.551V91.78ZM279.943 84.16H282.079L287.935 100H285.739L284.371 96.184H277.651L276.259 100H274.063L279.943 84.16ZM278.311 94.336H283.723L281.035 86.68H280.999L278.311 94.336ZM296.576 84.16H305.936V86.02H298.604V91.156H305.792V92.968H298.604V98.14H305.936V100H296.576V84.16ZM323.993 84.16V100H321.953V88.564L322.061 86.812L321.629 88.744L317.813 99.1H315.785L311.969 88.744L311.549 86.812L311.645 88.564V100H309.593V84.16H312.329L316.649 96.592L316.793 97.396L316.949 96.592L321.281 84.16H323.993ZM327.949 84.16H332.437C333.429 84.16 334.321 84.324 335.113 84.652C335.913 84.972 336.549 85.476 337.021 86.164C337.493 86.852 337.729 87.748 337.729 88.852C337.729 89.948 337.493 90.856 337.021 91.576C336.549 92.296 335.913 92.836 335.113 93.196C334.321 93.548 333.429 93.724 332.437 93.724H330.001V100H327.949V84.16ZM330.001 92.008H331.873C332.553 92.008 333.169 91.908 333.721 91.708C334.281 91.508 334.725 91.18 335.053 90.724C335.389 90.268 335.557 89.656 335.557 88.888C335.557 88.112 335.389 87.508 335.053 87.076C334.725 86.636 334.281 86.328 333.721 86.152C333.169 85.968 332.553 85.876 331.873 85.876H330.001V92.008ZM340.754 84.16H346.286C347.142 84.16 347.918 84.34 348.614 84.7C349.318 85.052 349.878 85.572 350.294 86.26C350.718 86.94 350.93 87.772 350.93 88.756C350.93 89.732 350.734 90.54 350.342 91.18C349.958 91.82 349.494 92.304 348.95 92.632C348.406 92.952 347.902 93.128 347.438 93.16L351.362 100H349.034L345.362 93.304H342.806V100H340.754V84.16ZM342.806 91.78H345.566C346.51 91.78 347.29 91.544 347.906 91.072C348.522 90.6 348.83 89.844 348.83 88.804C348.83 87.764 348.522 87.016 347.906 86.56C347.298 86.104 346.522 85.876 345.578 85.876H342.806V91.78ZM354.558 84.16H363.918V86.02H356.586V91.156H363.774V92.968H356.586V98.14H363.918V100H354.558V84.16ZM372.568 83.872C373.48 83.872 374.264 83.976 374.92 84.184C375.584 84.392 376.104 84.612 376.48 84.844C376.864 85.076 377.092 85.228 377.164 85.3L376.108 86.992C375.988 86.888 375.776 86.74 375.472 86.548C375.168 86.348 374.788 86.172 374.332 86.02C373.876 85.86 373.356 85.78 372.772 85.78C371.868 85.78 371.152 85.964 370.624 86.332C370.104 86.692 369.844 87.204 369.844 87.868C369.844 88.316 369.98 88.712 370.252 89.056C370.532 89.392 370.924 89.7 371.428 89.98C371.932 90.26 372.52 90.548 373.192 90.844C373.744 91.076 374.284 91.34 374.812 91.636C375.348 91.932 375.832 92.28 376.264 92.68C376.704 93.08 377.052 93.544 377.308 94.072C377.572 94.6 377.704 95.208 377.704 95.896C377.704 96.576 377.564 97.188 377.284 97.732C377.012 98.276 376.624 98.74 376.12 99.124C375.624 99.5 375.044 99.788 374.38 99.988C373.716 100.188 373 100.288 372.232 100.288C371.264 100.288 370.388 100.168 369.604 99.928C368.828 99.688 368.2 99.436 367.72 99.172C367.248 98.908 366.976 98.744 366.904 98.68L368.02 96.916C368.116 96.996 368.292 97.116 368.548 97.276C368.804 97.428 369.12 97.588 369.496 97.756C369.872 97.924 370.296 98.068 370.768 98.188C371.24 98.3 371.744 98.356 372.28 98.356C373.352 98.356 374.164 98.116 374.716 97.636C375.268 97.156 375.544 96.54 375.544 95.788C375.544 95.212 375.368 94.716 375.016 94.3C374.664 93.884 374.196 93.512 373.612 93.184C373.028 92.856 372.384 92.54 371.68 92.236C370.96 91.908 370.3 91.548 369.7 91.156C369.1 90.764 368.616 90.296 368.248 89.752C367.888 89.2 367.708 88.536 367.708 87.76C367.708 86.992 367.924 86.316 368.356 85.732C368.796 85.148 369.384 84.692 370.12 84.364C370.864 84.036 371.68 83.872 372.568 83.872ZM385.595 84.16H387.731L393.587 100H391.391L390.023 96.184H383.303L381.911 100H379.715L385.595 84.16ZM383.963 94.336H389.375L386.687 86.68H386.651L383.963 94.336ZM400.692 83.872C401.604 83.872 402.388 83.976 403.044 84.184C403.708 84.392 404.228 84.612 404.604 84.844C404.988 85.076 405.216 85.228 405.288 85.3L404.232 86.992C404.112 86.888 403.9 86.74 403.596 86.548C403.292 86.348 402.912 86.172 402.456 86.02C402 85.86 401.48 85.78 400.896 85.78C399.992 85.78 399.276 85.964 398.748 86.332C398.228 86.692 397.968 87.204 397.968 87.868C397.968 88.316 398.104 88.712 398.376 89.056C398.656 89.392 399.048 89.7 399.552 89.98C400.056 90.26 400.644 90.548 401.316 90.844C401.868 91.076 402.408 91.34 402.936 91.636C403.472 91.932 403.956 92.28 404.388 92.68C404.828 93.08 405.176 93.544 405.432 94.072C405.696 94.6 405.828 95.208 405.828 95.896C405.828 96.576 405.688 97.188 405.408 97.732C405.136 98.276 404.748 98.74 404.244 99.124C403.748 99.5 403.168 99.788 402.504 99.988C401.84 100.188 401.124 100.288 400.356 100.288C399.388 100.288 398.512 100.168 397.728 99.928C396.952 99.688 396.324 99.436 395.844 99.172C395.372 98.908 395.1 98.744 395.028 98.68L396.144 96.916C396.24 96.996 396.416 97.116 396.672 97.276C396.928 97.428 397.244 97.588 397.62 97.756C397.996 97.924 398.42 98.068 398.892 98.188C399.364 98.3 399.868 98.356 400.404 98.356C401.476 98.356 402.288 98.116 402.84 97.636C403.392 97.156 403.668 96.54 403.668 95.788C403.668 95.212 403.492 94.716 403.14 94.3C402.788 93.884 402.32 93.512 401.736 93.184C401.152 92.856 400.508 92.54 399.804 92.236C399.084 91.908 398.424 91.548 397.824 91.156C397.224 90.764 396.74 90.296 396.372 89.752C396.012 89.2 395.832 88.536 395.832 87.76C395.832 86.992 396.048 86.316 396.48 85.732C396.92 85.148 397.508 84.692 398.244 84.364C398.988 84.036 399.804 83.872 400.692 83.872Z" fill="white"/>
<path d="M296.252 36.872C297.164 36.872 297.948 36.976 298.604 37.184C299.268 37.392 299.788 37.612 300.164 37.844C300.548 38.076 300.776 38.228 300.848 38.3L299.792 39.992C299.672 39.888 299.46 39.74 299.156 39.548C298.852 39.348 298.472 39.172 298.016 39.02C297.56 38.86 297.04 38.78 296.456 38.78C295.552 38.78 294.836 38.964 294.308 39.332C293.788 39.692 293.528 40.204 293.528 40.868C293.528 41.316 293.664 41.712 293.936 42.056C294.216 42.392 294.608 42.7 295.112 42.98C295.616 43.26 296.204 43.548 296.876 43.844C297.428 44.076 297.968 44.34 298.496 44.636C299.032 44.932 299.516 45.28 299.948 45.68C300.388 46.08 300.736 46.544 300.992 47.072C301.256 47.6 301.388 48.208 301.388 48.896C301.388 49.576 301.248 50.188 300.968 50.732C300.696 51.276 300.308 51.74 299.804 52.124C299.308 52.5 298.728 52.788 298.064 52.988C297.4 53.188 296.684 53.288 295.916 53.288C294.948 53.288 294.072 53.168 293.288 52.928C292.512 52.688 291.884 52.436 291.404 52.172C290.932 51.908 290.66 51.744 290.588 51.68L291.704 49.916C291.8 49.996 291.976 50.116 292.232 50.276C292.488 50.428 292.804 50.588 293.18 50.756C293.556 50.924 293.98 51.068 294.452 51.188C294.924 51.3 295.428 51.356 295.964 51.356C297.036 51.356 297.848 51.116 298.4 50.636C298.952 50.156 299.228 49.54 299.228 48.788C299.228 48.212 299.052 47.716 298.7 47.3C298.348 46.884 297.88 46.512 297.296 46.184C296.712 45.856 296.068 45.54 295.364 45.236C294.644 44.908 293.984 44.548 293.384 44.156C292.784 43.764 292.3 43.296 291.932 42.752C291.572 42.2 291.392 41.536 291.392 40.76C291.392 39.992 291.608 39.316 292.04 38.732C292.48 38.148 293.068 37.692 293.804 37.364C294.548 37.036 295.364 36.872 296.252 36.872ZM306.652 53.288C306.212 53.288 305.832 53.132 305.512 52.82C305.2 52.5 305.044 52.12 305.044 51.68C305.044 51.224 305.2 50.84 305.512 50.528C305.832 50.208 306.212 50.048 306.652 50.048C307.108 50.048 307.492 50.208 307.804 50.528C308.116 50.84 308.272 51.224 308.272 51.68C308.272 52.12 308.116 52.5 307.804 52.82C307.492 53.132 307.108 53.288 306.652 53.288ZM312.389 37.16H317.921C318.777 37.16 319.553 37.34 320.249 37.7C320.953 38.052 321.513 38.572 321.929 39.26C322.353 39.94 322.565 40.772 322.565 41.756C322.565 42.732 322.369 43.54 321.977 44.18C321.593 44.82 321.129 45.304 320.585 45.632C320.041 45.952 319.537 46.128 319.073 46.16L322.997 53H320.669L316.997 46.304H314.441V53H312.389V37.16ZM314.441 44.78H317.201C318.145 44.78 318.925 44.544 319.541 44.072C320.157 43.6 320.465 42.844 320.465 41.804C320.465 40.764 320.157 40.016 319.541 39.56C318.933 39.104 318.157 38.876 317.213 38.876H314.441V44.78ZM328.354 53.288C327.914 53.288 327.534 53.132 327.214 52.82C326.902 52.5 326.746 52.12 326.746 51.68C326.746 51.224 326.902 50.84 327.214 50.528C327.534 50.208 327.914 50.048 328.354 50.048C328.81 50.048 329.194 50.208 329.506 50.528C329.818 50.84 329.974 51.224 329.974 51.68C329.974 52.12 329.818 52.5 329.506 52.82C329.194 53.132 328.81 53.288 328.354 53.288ZM334.092 37.16H336.144V51.14H342.372V53H334.092V37.16Z" fill="white"/>
</svg>
